<?xml version="1.0" standalone="no"?>
<!DOCTYPE svg PUBLIC "-//W3C//DTD SVG 20010904//EN"
 "http://www.w3.org/TR/2001/REC-SVG-20010904/DTD/svg10.dtd">
<svg version="1.0" xmlns="http://www.w3.org/2000/svg"
 width="960.000000pt" height="960.000000pt" viewBox="0 0 960.000000 960.000000"
 preserveAspectRatio="xMidYMid meet">
<metadata>
Created by potrace 1.11, written by Peter Selinger 2001-2013
</metadata>
<g transform="translate(0.000000,960.000000) scale(0.100000,-0.100000)"
fill="#000000" stroke="none">
<path d="M3439 9105 c-2 -2 -38 -6 -79 -10 -439 -36 -919 -177 -1293 -382
-113 -61 -329 -201 -393 -254 -22 -19 -59 -49 -82 -67 -116 -95 -277 -255
-379 -377 -329 -397 -556 -885 -656 -1410 -50 -259 -64 -418 -65 -715 0 -284
8 -394 43 -635 22 -147 70 -389 85 -429 4 -12 1 -48 -7 -81 -45 -186 -92 -467
-110 -655 -10 -110 -10 -620 0 -730 62 -652 301 -1272 661 -1715 23 -27 50
-61 61 -74 44 -54 144 -160 220 -232 499 -476 1161 -765 1915 -836 106 -10
596 -11 710 -1 113 10 295 34 400 54 47 8 99 18 115 20 17 3 67 14 111 25 101
24 107 24 212 -2 98 -23 396 -74 492 -84 36 -4 106 -10 155 -15 94 -9 616 -6
695 4 25 3 68 8 95 11 106 13 134 18 260 42 269 51 549 142 775 252 188 92
307 161 455 267 150 108 221 167 349 292 525 515 831 1184 913 1992 9 98 10
568 1 690 -7 84 -16 165 -33 295 -9 62 -64 344 -78 400 -12 46 -11 60 14 175
77 343 102 571 103 930 1 157 -3 321 -7 365 -5 44 -9 87 -9 95 0 26 -38 274
-43 289 -3 8 -8 30 -11 50 -3 20 -19 88 -35 151 -197 757 -625 1368 -1244
1777 -192 127 -356 213 -559 293 -177 69 -432 146 -541 163 -16 3 -50 10 -75
15 -25 6 -83 16 -130 22 -47 6 -96 13 -110 15 -183 27 -763 27 -931 0 -13 -2
-78 -11 -144 -20 -114 -16 -280 -48 -410 -78 -38 -9 -71 -11 -90 -5 -117 32
-423 86 -590 103 -33 4 -71 9 -85 12 -30 6 -645 14 -651 8z"/>
</g>
</svg>
